<svg width="153" height="46" viewBox="0 0 153 46" fill="none" xmlns="http://www.w3.org/2000/svg">
<path d="M61.4842 38.7208C60.2517 38.6911 59.0483 38.4616 57.874 38.0322C56.7016 37.6029 55.6787 37.0202 54.8054 36.2842C53.9338 35.5482 53.3102 34.7128 52.9346 33.7779L55.6642 32.5819C55.9048 33.1785 56.3525 33.7259 57.007 34.224C57.6616 34.724 58.4101 35.1226 59.2525 35.42C60.0949 35.7192 60.929 35.8688 61.755 35.8688C62.674 35.8688 63.5318 35.7155 64.3286 35.4088C65.1254 35.1022 65.7755 34.6617 66.2787 34.0874C66.7838 33.5131 67.0363 32.8347 67.0363 32.0522C67.0363 31.2084 66.7655 30.5449 66.224 30.0617C65.6825 29.5785 64.9978 29.1956 64.17 28.9131C63.3422 28.6287 62.4925 28.3564 61.621 28.0962C60.0256 27.652 58.6189 27.1614 57.4009 26.6242C56.1829 26.0871 55.2311 25.4004 54.5455 24.564C53.8618 23.7295 53.5199 22.6524 53.5199 21.3328C53.5199 19.9389 53.9074 18.7318 54.6823 17.7114C55.4572 16.691 56.4728 15.9011 57.7291 15.3417C58.9854 14.7823 60.3273 14.5025 61.755 14.5025C63.5911 14.5025 65.2649 14.9086 66.7765 15.7208C68.288 16.5349 69.382 17.6166 70.0585 18.9659L67.5095 20.5048C67.2396 19.8766 66.8111 19.333 66.224 18.8739C65.6369 18.413 64.9714 18.0524 64.2274 17.7922C63.4817 17.532 62.7259 17.3936 61.9601 17.3768C60.9974 17.362 60.1022 17.5042 59.2744 17.8034C58.4466 18.1026 57.7811 18.5431 57.2778 19.1248C56.7727 19.7084 56.5202 20.4221 56.5202 21.2659C56.5202 22.1079 56.7691 22.7472 57.2669 23.184C57.7628 23.6226 58.4356 23.9758 59.2853 24.2434C60.135 24.511 61.094 24.8214 62.1625 25.1745C63.5318 25.6187 64.8182 26.1252 66.0216 26.6939C67.225 27.2608 68.195 27.9661 68.9316 28.8099C69.6683 29.6519 70.0293 30.7168 70.0147 32.0048C70.0147 33.3858 69.6081 34.5901 68.7949 35.6179C67.9835 36.6439 66.9305 37.4291 65.636 37.9737C64.3432 38.5183 62.9593 38.7673 61.4842 38.7208Z" fill="white"/>
<path d="M83.6651 38.8825C81.5901 38.8825 79.6984 38.338 77.9899 37.2488C76.2833 36.1616 74.9222 34.7017 73.9066 32.8691C72.891 31.0365 72.3832 29.0088 72.3832 26.7859C72.3832 25.0983 72.6767 23.5223 73.2638 22.0577C73.851 20.5931 74.6596 19.3051 75.6898 18.1937C76.72 17.0823 77.9197 16.2124 79.2891 15.5842C80.6566 14.956 82.1152 14.6419 83.6651 14.6419C85.3352 14.6419 86.8732 14.9793 88.279 15.6539C89.6866 16.3286 90.8973 17.2709 91.9111 18.4808C92.9267 19.6926 93.6943 21.1117 94.2139 22.7379C94.7336 24.3623 94.9478 26.1178 94.8567 28.0042H75.7226C75.9031 29.4614 76.358 30.7642 77.0874 31.9128C77.8167 33.0633 78.7493 33.9722 79.8853 34.6394C81.0212 35.3066 82.2811 35.6477 83.6651 35.6625C85.1693 35.6625 86.5268 35.2639 87.7375 34.4665C88.9482 33.6692 89.9227 32.5726 90.6612 31.1768L93.8639 31.9379C92.9613 33.9768 91.6002 35.644 89.7805 36.9394C87.9608 38.2348 85.9223 38.8825 83.6651 38.8825ZM75.6324 25.4059H91.6759C91.5701 23.9785 91.1453 22.671 90.4014 21.4834C89.6556 20.2958 88.6965 19.3451 87.5241 18.6314C86.3499 17.9177 85.0636 17.5608 83.6651 17.5608C82.2666 17.5608 80.9884 17.9103 79.8306 18.6091C78.6709 19.3061 77.7228 20.2484 76.9862 21.436C76.2496 22.6255 75.7983 23.9488 75.6324 25.4059Z" fill="white"/>
<path d="M117.038 15.2859H120.197V38.2859H117.038L116.925 34.0065C116.187 35.4637 115.156 36.6402 113.832 37.536C112.508 38.4337 110.929 38.8825 109.095 38.8825C107.44 38.8825 105.89 38.5647 104.446 37.9291C103.002 37.2916 101.731 36.4134 100.633 35.2945C99.5354 34.1757 98.6784 32.8802 98.0621 31.4082C97.444 29.9362 97.135 28.3564 97.135 26.6688C97.135 25.0128 97.4395 23.4572 98.0485 22.0019C98.6593 20.5448 99.5017 19.2642 100.576 18.1602C101.651 17.0562 102.9 16.1939 104.323 15.5731C105.745 14.9523 107.268 14.6419 108.893 14.6419C110.773 14.6419 112.412 15.0973 113.81 16.008C115.209 16.9206 116.322 18.1128 117.15 19.5848L117.038 15.2859ZM109.027 35.7545C110.637 35.7545 112.021 35.3522 113.178 34.5474C114.336 33.7426 115.228 32.6581 115.853 31.2939C116.477 29.9279 116.789 28.4252 116.789 26.7859C116.789 25.0983 116.473 23.5762 115.842 22.2194C115.21 20.8626 114.314 19.7856 113.157 18.9882C111.999 18.1909 110.622 17.7922 109.027 17.7922C107.433 17.7922 105.978 18.1946 104.662 18.9994C103.345 19.8042 102.3 20.8886 101.525 22.2528C100.75 23.6189 100.362 25.1299 100.362 26.7859C100.362 28.4568 100.761 29.9706 101.557 31.3274C102.356 32.6842 103.413 33.7612 104.727 34.5585C106.044 35.3559 107.477 35.7545 109.027 35.7545Z" fill="white"/>
<path d="M123.355 38.2859L134.93 22.0939L123.489 6.08594H127.395L136.872 19.3785L146.37 6.08594H150.273L138.857 22.0939L150.41 38.2859H146.483L136.872 24.8539L127.305 38.2859H123.355Z" fill="white"/>
<path d="M24.2516 2.37945C35.2717 2.37945 44.2373 11.5181 44.2373 22.7513C44.2373 33.9842 35.2717 43.1235 24.2516 43.1235C13.2315 43.1235 4.26585 33.9842 4.26585 22.7513C4.26585 11.5184 13.2317 2.37945 24.2516 2.37945ZM24.2516 0.391976C12.1364 0.391976 2.31607 10.4021 2.31607 22.7513C2.31607 35.1008 12.1364 45.1112 24.2516 45.1112C36.3665 45.1112 46.1874 35.1008 46.1874 22.7513C46.1874 10.4021 36.3665 0.391976 24.2516 0.391976Z" fill="#77B2E9"/>
<path d="M24.2516 20.2673C22.9068 20.2673 21.8144 21.3797 21.8144 22.7513C21.8144 24.123 22.9068 25.2356 24.2516 25.2356C25.5964 25.2356 26.689 24.1227 26.689 22.7513C26.6888 22.0925 26.4319 21.4607 25.9748 20.9949C25.5177 20.5291 24.8979 20.2674 24.2516 20.2673ZM24.2516 36.6639C23.6129 36.6759 23.0044 36.9429 22.5568 37.4075C22.1093 37.8721 21.8586 38.4972 21.8586 39.1484C21.8586 39.7995 22.1093 40.4246 22.5568 40.8892C23.0044 41.3538 23.6129 41.6208 24.2516 41.6328C24.8902 41.6208 25.4988 41.3538 25.9463 40.8892C26.3938 40.4246 26.6446 39.7995 26.6446 39.1484C26.6446 38.4972 26.3938 37.8721 25.9463 37.4075C25.4988 36.9429 24.8902 36.6759 24.2516 36.6639ZM34.6511 17.1326C34.134 17.1328 33.6382 17.3422 33.2725 17.7149C32.9068 18.0876 32.7013 18.593 32.7011 19.1201C32.7011 20.2171 33.5752 21.1079 34.6511 21.1079C35.7271 21.1079 36.6009 20.2171 36.6009 19.1201C36.6008 18.593 36.3953 18.0875 36.0296 17.7147C35.6639 17.342 35.1683 17.1328 34.6511 17.1326ZM12.327 10.3299C11.9469 10.3418 11.5863 10.504 11.3215 10.7822C11.0568 11.0605 10.9087 11.4329 10.9087 11.8205C10.9087 12.2081 11.0568 12.5805 11.3215 12.8587C11.5863 13.1369 11.9469 13.2992 12.327 13.311C12.7079 13.3004 13.0697 13.1387 13.3355 12.8603C13.6012 12.5819 13.7499 12.2088 13.7499 11.8203C13.7499 11.4319 13.6012 11.0588 13.3355 10.7804C13.0697 10.502 12.7079 10.3405 12.327 10.3299Z" fill="#77B2E9"/>
<path d="M13.5052 33.5808C13.5052 33.5808 13.7582 33.8209 14.2308 34.2722C14.3493 34.3849 14.4819 34.51 14.6274 34.6492L15.0995 35.0172L15.6465 35.4456C15.8371 35.6023 16.0832 35.7328 16.3193 35.8914C17.2634 36.5444 18.5338 37.1385 20.0463 37.6311C21.5686 38.1248 23.36 38.3679 25.3568 38.2516C25.8948 38.2544 26.3488 38.1477 26.8493 38.0852C27.3421 38.0406 27.8503 37.8784 28.3664 37.7582C29.3964 37.492 30.4198 37.0685 31.4359 36.5594C33.4543 35.5112 35.3267 33.8895 36.8041 31.8549C37.0038 31.6106 37.1674 31.3399 37.3295 31.0673L37.8292 30.2507L38.2515 29.3823C38.3973 29.0935 38.5387 28.8013 38.6399 28.4907L38.982 27.5716C39.0928 27.2629 39.1568 26.9387 39.2473 26.6209C39.4448 25.9886 39.5233 25.3268 39.6335 24.6674C39.703 24.3393 39.6972 24.002 39.7246 23.6671C39.7407 23.3437 39.7744 22.971 39.7776 22.6847L39.7167 21.1115L39.6472 20.6172L39.5102 19.6256C39.4453 19.2946 39.3551 18.9648 39.2785 18.6336C39.15 17.9623 38.8789 17.3345 38.6683 16.6857C38.1375 15.4362 37.5295 14.2015 36.7019 13.1253C36.3299 12.5547 35.8521 12.0737 35.417 11.558C35.1908 11.3085 34.9334 11.091 34.6941 10.8554C34.4493 10.6254 34.2144 10.3843 33.9414 10.19C31.8686 8.50526 29.4221 7.3416 26.9117 6.91422C24.4097 6.45812 21.8801 6.62484 19.6393 7.28333C17.3843 7.94462 15.4247 9.11218 13.858 10.4573C12.2917 11.8114 11.0965 13.3394 10.2763 14.8271C10.0608 15.1928 9.9016 15.5753 9.72136 15.9291C9.63712 16.1089 9.54304 16.2809 9.47084 16.4588L9.27446 16.9879C9.15002 17.3353 9.01327 17.6632 8.91426 17.9868L8.66647 18.9236C8.48487 19.5121 8.44001 20.0627 8.35304 20.5327C8.26115 21.0028 8.24255 21.4098 8.22532 21.739C8.20575 22.0765 8.18578 22.4139 8.16542 22.7513L8.20453 21.7393C8.21465 21.4087 8.22395 21.0005 8.30627 20.5277C8.38285 20.0552 8.41649 19.5001 8.58579 18.9054L8.81416 17.9576C8.90715 17.6294 9.03761 17.2966 9.15549 16.9436L9.34229 16.4056C9.41149 16.2246 9.50201 16.0493 9.58297 15.8661C9.75692 15.5048 9.90953 15.1148 10.1196 14.7401C10.9168 13.2171 12.094 11.64 13.6598 10.2243C15.2264 8.81834 17.204 7.5769 19.5086 6.84452C21.8158 6.1127 24.4053 5.88159 27.0161 6.29615C29.6335 6.68255 32.2176 7.83533 34.4326 9.55713C34.7234 9.7559 34.9763 10.0024 35.2384 10.2382C35.4957 10.4794 35.7711 10.7038 36.0154 10.9614C36.4858 11.4919 36.9997 11.9909 37.4061 12.5831C38.3037 13.7016 38.9793 14.9918 39.5701 16.3091C39.8105 16.9916 40.1102 17.6556 40.265 18.3668C40.3545 18.7187 40.4573 19.0655 40.5341 19.4223L40.7086 20.5135L40.7934 21.0588L40.8881 22.6306C40.8949 23.0421 40.8667 23.3655 40.8569 23.7366C40.8364 24.0959 40.8473 24.4575 40.783 24.8118C40.6816 25.5225 40.6088 26.237 40.413 26.9237C40.3233 27.268 40.2593 27.6192 40.1482 27.9557L39.8006 28.9569C39.6964 29.2948 39.5517 29.6142 39.4013 29.9304L38.9637 30.8811L38.4424 31.7782C38.272 32.0784 38.0994 32.3754 37.8902 32.6458C36.3356 34.8923 34.3292 36.7083 32.1396 37.9099C31.0379 38.4961 29.9199 38.9854 28.7898 39.306C28.2206 39.4546 27.6785 39.6383 27.0949 39.71C26.5277 39.7975 25.9421 39.9227 25.4405 39.9291C23.3039 40.1031 21.2559 39.8789 19.5578 39.3671C17.8553 38.8588 16.4172 38.2179 15.341 37.5129C15.068 37.3389 14.8013 37.2026 14.5664 37.0222C14.3304 36.8454 14.1091 36.6798 13.9034 36.5248L13.3359 36.0936C13.1872 35.9586 13.0529 35.8354 12.932 35.7258L12.1908 35.0512L13.5052 33.5808Z" fill="#77B2E9"/>
<path d="M16.9563 30.0695L17.4598 30.5546L17.7344 30.8183L18.0492 31.0656C18.274 31.2446 18.5264 31.4568 18.8661 31.6589C19.5034 32.1072 20.3632 32.5148 21.3883 32.8568C22.4222 33.1997 23.6327 33.3723 25.0018 33.3018C25.3825 33.3046 25.6804 33.234 26.0181 33.1939C26.3482 33.1666 26.6967 33.0587 27.0481 32.9778C27.751 32.8008 28.4506 32.5161 29.1453 32.1721C30.5271 31.4662 31.8125 30.365 32.8313 28.98C33.8681 27.6028 34.5316 25.8793 34.7978 24.07C34.847 23.8456 34.8451 23.6139 34.8642 23.3847C34.8768 23.1667 34.9 22.8985 34.9055 22.719L34.8801 21.9886L34.868 21.6225L34.8221 21.2852L34.7318 20.6094C34.6897 20.3827 34.6279 20.155 34.577 19.9275C34.4906 19.4655 34.3068 19.0331 34.1641 18.5871C33.8044 17.7256 33.3901 16.8742 32.8239 16.1298C32.5701 15.7359 32.243 15.4022 31.9446 15.0456C31.7906 14.8717 31.6128 14.7222 31.449 14.5586C31.2808 14.3997 31.12 14.2318 30.9327 14.0972C29.5094 12.928 27.8251 12.1136 26.0923 11.8095C24.3648 11.4844 22.6106 11.5914 21.0588 12.0389C19.4943 12.4891 18.1315 13.292 17.0391 14.2204C15.9479 15.1544 15.1112 16.2118 14.5355 17.2433C14.3845 17.4973 14.2732 17.7619 14.146 18.008C14.0148 18.2525 13.9179 18.5009 13.8312 18.7429C13.7437 18.9841 13.6469 19.2121 13.5772 19.4365L13.4018 20.0881C13.2733 20.4973 13.2405 20.8807 13.1781 21.2074C13.1122 21.535 13.0988 21.8179 13.0854 22.0471L13.04 22.7513L13.0641 22.046C13.0704 21.8152 13.075 21.5302 13.1314 21.2004C13.1828 20.8706 13.2044 20.4837 13.3214 20.0677L13.4779 19.4053C13.5416 19.1761 13.6313 18.9431 13.7128 18.6966C13.7927 18.4488 13.8835 18.194 14.0077 17.9425C14.1285 17.6896 14.2338 17.4162 14.3791 17.1538C14.9318 16.0877 15.7498 14.9807 16.8406 13.9848C17.9327 12.9954 19.3141 12.1197 20.928 11.5979C22.631 11.0547 24.4331 10.915 26.197 11.1894C28.0377 11.4532 29.8589 12.2566 31.4247 13.4621C31.6293 13.6012 31.8076 13.7744 31.9938 13.9388C32.1757 14.1081 32.3707 14.265 32.5436 14.4462C32.8772 14.8187 33.2399 15.1694 33.5284 15.5854C34.1641 16.3718 34.6451 17.2793 35.0655 18.2079C35.2378 18.6883 35.4506 19.1575 35.5633 19.6587C35.627 19.9071 35.7011 20.1511 35.7561 20.4039L35.8838 21.1798L35.9448 21.5673L36.0165 22.6618C36.0219 22.9679 36.0033 23.1857 35.9973 23.4519C35.9842 23.7056 35.9919 23.9618 35.9467 24.2127C35.717 26.2275 35.0319 28.1813 33.9171 29.7692C32.8206 31.3664 31.4023 32.6611 29.849 33.5209C29.0682 33.941 28.2745 34.292 27.4718 34.5234C27.0667 34.6319 26.683 34.7615 26.2629 34.8161C25.8568 34.8817 25.4298 34.9706 25.086 34.9767C23.5747 35.105 22.1087 34.9514 20.8985 34.5906C19.6831 34.2312 18.6558 33.7771 17.8859 33.2767C17.4896 33.0564 17.148 32.7958 16.8515 32.5702L16.4421 32.2591L15.6413 31.5356L16.9563 30.0695Z" fill="#77B2E9"/>
<path d="M20.4275 26.5824C20.5725 26.7249 20.7177 26.8673 20.8629 27.0095L21.0202 27.1344C21.1315 27.2253 21.2554 27.334 21.4356 27.4439C21.768 27.6836 22.2176 27.9039 22.7561 28.0912C23.3031 28.2786 23.9281 28.3812 24.6758 28.3502C24.8995 28.3541 25.0314 28.3154 25.2113 28.2989C25.3782 28.29 25.5688 28.2292 25.7556 28.1921C26.1308 28.1018 26.5041 27.9546 26.8786 27.7773C27.6195 27.4071 28.3161 26.8283 28.8732 26.0898C29.4388 25.3549 29.8083 24.4319 29.9645 23.4539C30.0036 23.2202 30.0129 22.9342 30.0315 22.7329L30.0222 22.32L30.0167 22.1137L29.994 21.935C29.9604 21.4633 29.8179 20.9467 29.6549 20.47C29.2895 19.5193 28.6922 18.642 27.9149 17.9921C27.1414 17.3398 26.2192 16.88 25.2636 16.6997C24.338 16.5141 23.3831 16.5461 22.4714 16.7931C21.6465 17.0246 20.8784 17.4296 20.2164 17.9821C19.5999 18.497 19.124 19.0833 18.7936 19.6587C18.4723 20.2375 18.2486 20.7817 18.137 21.2506C18.0172 21.7162 17.9586 22.0951 17.945 22.3538L17.9141 22.7513L17.9234 22.3524C17.922 22.092 17.9595 21.7089 18.0555 21.2308C18.143 20.7493 18.3383 20.184 18.6361 19.5698C18.9432 18.9595 19.4005 18.3236 20.0173 17.7476C20.6873 17.1226 21.4783 16.6474 22.3393 16.3526C23.3148 16.0281 24.3502 15.9351 25.3664 16.0808C26.4295 16.2199 27.4888 16.669 28.405 17.3571C29.3239 18.0418 30.0684 19.0033 30.5555 20.0895C30.6589 20.3688 30.7869 20.6406 30.8558 20.9328L30.9742 21.3671L31.0541 21.8266L31.0924 22.0571L31.1088 22.2643L31.1405 22.6763C31.1482 22.8745 31.137 22.9886 31.1356 23.1483C31.1282 23.2975 31.1364 23.448 31.1121 23.5944C30.9928 24.7781 30.6017 25.9315 29.9587 26.8765C29.3248 27.8264 28.495 28.6 27.5834 29.1227C27.1242 29.3778 26.6557 29.5911 26.1809 29.7355C25.9396 29.8016 25.7187 29.8833 25.4605 29.9195C25.2198 29.9602 24.9436 30.0188 24.7581 30.0238C23.8777 30.113 22.9913 30.0302 22.2696 29.8256C21.5415 29.6226 20.9239 29.3564 20.459 29.0645C20.2385 28.9398 20.0271 28.7991 19.8264 28.6435L19.5734 28.4539L19.1147 28.0525L20.4275 26.5824Z" fill="#77B2E9"/>
<path d="M25.566 23.663L10.5689 38.9503L9.19049 37.5452L24.1873 22.2576L25.566 23.663Z" fill="#77B2E9"/>
</svg>
